<svg id="图层_1" data-name="图层 1" xmlns="http://www.w3.org/2000/svg" xmlns:xlink="http://www.w3.org/1999/xlink" viewBox="0 0 24 24"><defs><style>.cls-1{fill:none;}.cls-2{clip-path:url(#clip-path);}.cls-3{clip-path:url(#clip-path-2);}.cls-4{fill:#333;}.cls-5{clip-path:url(#clip-path-3);}.cls-6{clip-path:url(#clip-path-4);}.cls-7{clip-path:url(#clip-path-5);}.cls-8{clip-path:url(#clip-path-6);}</style><clipPath id="clip-path"><path class="cls-1" d="M18.26,13.63H13.87a1.2,1.2,0,0,0-1.25,1.29v5.77A1.42,1.42,0,0,0,14.12,22h5.39a1.19,1.19,0,0,0,1.24-1.29V14.92a1.21,1.21,0,0,0-1.26-1.29Zm-9.39,0H3.26A1.33,1.33,0,0,0,2,15.06V20.6A1.35,1.35,0,0,0,3.34,22h5.4a1.32,1.32,0,0,0,1.39-1.29V14.92a1.29,1.29,0,0,0-1.39-1.26Zm0-10.9H3.26A1.16,1.16,0,0,0,2,4V9.77a1.21,1.21,0,0,0,1.26,1.29H8.87a1.21,1.21,0,0,0,1.26-1.29V4A1.19,1.19,0,0,0,8.87,2.73Zm8,7.92L13,6.74l3.82-3.92,3.81,3.92Zm4.78-4.89L17.77,1.83a1.33,1.33,0,0,0-1.91,0L12.07,5.76a1.42,1.42,0,0,0,0,2l3.81,3.91a1.31,1.31,0,0,0,1.91,0l3.82-3.93A1.45,1.45,0,0,0,21.61,5.76Z"/></clipPath><clipPath id="clip-path-2"><rect class="cls-1" x="-78" y="-31" width="1920" height="1043"/></clipPath><clipPath id="clip-path-3"><path class="cls-1" d="M34,3H53a1,1,0,0,1,0,2H34a1,1,0,0,1,0-2Z"/></clipPath><clipPath id="clip-path-4"><path class="cls-1" d="M41,11H53a1,1,0,0,1,0,2H41a1,1,0,0,1,0-2Z"/></clipPath><clipPath id="clip-path-5"><path class="cls-1" d="M34,20H53a1,1,0,0,1,0,2H34a1,1,0,0,1,0-2Z"/></clipPath><clipPath id="clip-path-6"><path class="cls-1" d="M36.56,8.07,32.12,12.5a.46.46,0,0,0,0,.64h0L36.63,17a.22.22,0,0,0,.32,0,.27.27,0,0,0,0-.15l0-8.56A.23.23,0,0,0,36.71,8a.21.21,0,0,0-.15.07Z"/></clipPath></defs><title>1</title><g class="cls-2"><g class="cls-3"><rect class="cls-4" x="-3" y="-3.58" width="29.99" height="30.56"/></g></g></svg>